<?xml version="1.0" encoding="utf-8"?>
<!-- Generator: Adobe Illustrator 28.0.0, SVG Export Plug-In . SVG Version: 6.00 Build 0)  -->
<svg version="1.1" id="Слой_1" xmlns="http://www.w3.org/2000/svg" xmlns:xlink="http://www.w3.org/1999/xlink" x="0px" y="0px"
	 viewBox="0 0 1000 888.888855" enable-background="new 0 0 1000 888.888855" xml:space="preserve">
<g>
	<g>
		<path fill="#000001" d="M625.2723999,827.8867798h76.2526855l0,0V801.742981l0,0h-76.2526855l0,0l0,0v-26.1437988l0,0l0,0
			h82.7886353l0,0l0,0v-26.1438599l0,0l0,0H594.7712402l0,0l0,0v132.897583l0,0h113.2897949l0,0v-26.1437988l0,0H623.09375l0,0l0,0
			L625.2723999,827.8867798C623.09375,827.8867798,623.09375,827.8867798,625.2723999,827.8867798L625.2723999,827.8867798z"/>
		<path fill="#000001" d="M418.3006897,751.6340332c-6.5359192-2.1785889-17.4291687-4.3572998-28.3224182-4.3572998h-76.2527161
			l0,0v132.897583l0,0h30.5010681l0,0v-41.3944092l0,0l0,0h45.7516479c17.4291687,0,30.5010681-4.3572998,39.2156677-10.8932495
			c8.7145996-6.5358887,13.0718994-19.6078491,13.0718994-34.8583374c0-10.8932495-2.1786499-21.786499-6.5359192-28.3223877
			C431.3725586,760.3485718,424.8366394,755.991333,418.3006897,751.6340332z M405.2287903,810.4575806
			c-4.3573303,4.3572998-10.8932495,4.3572998-19.6078491,4.3572998h-43.5729675l0,0v-41.3943481l0,0h43.5729675
			c6.5359497,0,10.8932495,0,15.2505798,2.1786499c2.1786499,2.1785889,6.5359192,4.3572998,6.5359192,6.5358887
			c2.1786499,4.3572998,2.1786499,6.5359497,2.1786499,10.8932495
			C411.7647095,801.742981,409.5860596,806.1002808,405.2287903,810.4575806z"/>
		<path fill="#000001" d="M122.004364,753.8126831c-10.8932495-4.3573608-26.1437988-8.7146606-43.5729904-8.7146606
			s-32.6797371,2.1786499-43.5729828,8.7146606c-10.8932476,4.3572998-19.6078434,13.0718384-26.1437931,23.9650879
			S0,799.56427,0,816.9934692c0,15.2505493,2.1786494,28.3223877,8.7145977,39.2156372s15.2505455,19.6079102,26.1437931,23.9650879
			c10.8932457,4.3573608,26.1437912,8.7146606,43.5729828,8.7146606s32.6797409-2.1786499,43.5729904-8.7146606
			c10.8932495-4.3572998,19.6078491-13.0718384,26.1437988-23.9650879s8.7145996-21.786499,8.7145996-39.2156372
			c0-15.2506104-2.1786499-28.3224487-8.7145996-39.2156982
			C141.6122131,766.8845825,132.8976135,758.1699829,122.004364,753.8126831z M119.8257141,838.7800293
			c-2.1786423,6.5358887-8.7145996,10.8932495-15.2505417,13.0718384
			c-6.5359497,2.1786499-15.2505417,4.3572998-26.1437912,4.3572998c-8.7145996,0-17.4291916-2.1785889-26.1437912-4.3572998l0,0
			c-6.5359459-2.1785889-10.8932457-8.7145996-15.2505455-13.0718384
			c-2.1786499-6.5359497-4.3572998-15.2505493-4.3572998-23.9651489s2.1786499-17.4291382,4.3572998-23.9650879
			s8.7145996-10.8932495,15.2505455-13.0718384c6.5359459-2.1786499,15.2505493-4.3573608,26.1437912-4.3573608
			c8.714592,0,19.6078415,2.1786499,28.3224411,4.3573608l0,0c6.5359497,2.1785889,10.8932495,8.7145996,13.0718918,13.0718384
			c2.1786499,6.5359497,4.3572998,15.2505493,4.3572998,23.9650879
			C124.1830139,823.52948,124.1830139,832.2440796,119.8257141,838.7800293L119.8257141,838.7800293z"/>
		<path fill="#000001" d="M919.3900146,854.0305786V747.2767334l0,0H888.888916l0,0v132.897583l0,0H1000l0,0v-26.1437988l0,0
			L919.3900146,854.0305786L919.3900146,854.0305786L919.3900146,854.0305786z"/>
	</g>
	<g>
		<path fill="#000001" d="M995.6427612,366.013092l-546.8409424-58.8235168l0,0l-150.3268127,78.431366l0,0l0,0h660.1307373
			L995.6427612,366.013092L995.6427612,366.013092C997.8214111,366.013092,995.6427612,366.013092,995.6427612,366.013092
			L995.6427612,366.013092z"/>
		<path fill="#000001" d="M501.0893555,21.786499c156.862793,0,285.4030151,128.5403137,285.4030151,285.4030762
			c0,4.3572693,0,8.7145691,0,15.2505188l21.786499,2.1786804c0-6.5359497,0-10.8932495,0-17.4291992
			C808.2788696,137.2549133,671.0239868,0,498.9106445,0C370.3703918,0.0000042,252.7233276,82.788681,209.1503448,206.9716797
			h23.9651489C274.5098267,95.8605728,381.2636414,21.786499,501.0893555,21.786499z"/>
		<path fill="#000001" d="M501.0893555,592.5925903c-156.8627625,0-285.4030762-128.5402832-285.4030762-285.4030457
			c0-4.3572998,0-8.7145996,0-15.2505493l-21.786499-2.1786499c0,6.5359497,0,10.8932495,0,17.4291992
			c0,169.9346313,137.2549133,307.1895447,309.3681946,307.1895447c130.7189636,0,248.3660583-82.7886353,289.7603455-206.9716797
			h-23.9650879C727.6689453,518.5185547,620.9150391,592.5925903,501.0893555,592.5925903z"/>
		<path fill="#000001" d="M553.3769531,307.1895752L553.3769531,307.1895752l150.3267822-78.4313812l0,0l0,0H41.3943405
			L4.3573003,248.3660431l0,0l0,0L553.3769531,307.1895752z"/>
	</g>
</g>
</svg>
