<?xml version="1.0" encoding="utf-8"?>
<!-- Generator: Adobe Illustrator 28.0.0, SVG Export Plug-In . SVG Version: 6.00 Build 0)  -->
<svg version="1.1" id="Слой_1" xmlns="http://www.w3.org/2000/svg" xmlns:xlink="http://www.w3.org/1999/xlink" x="0px" y="0px"
	 viewBox="0 0 1000 194" style="enable-background:new 0 0 1000 194;" xml:space="preserve">
<style type="text/css">
	.st0{fill:#020A0A;}
</style>
<path class="st0" d="M977,156.3h23v34.9h-24.1c-19.8,0-34.2-4.1-43.2-12.2c-8.9-8.1-13.3-21.3-13.3-39.4V84.3h-23.3v-5.5l55.7-57.1
	h5.5v31h39.9v31.6h-39.9v52.4c0,6.8,1.6,11.8,4.7,15C965.2,154.8,970.2,156.3,977,156.3z M836.9,191.3V0h38v191.3H836.9z M737.9,194
	c-20,0-35.8-5.3-47.7-15.8c-11.8-10.5-17.7-24.9-17.7-43V52.7h38v78.4c0,9.2,2.4,16.4,7.2,21.6c4.8,5,11.6,7.5,20.2,7.5
	c8.7,0,15.4-2.5,20.2-7.5c4.8-5.2,7.2-12.4,7.2-21.6V52.7h38v82.6c0,17.6-6,31.8-18,42.7C773.3,188.7,757.5,194,737.9,194z
	 M568,160.2c10.5,0,19.1-3.5,25.8-10.5c6.7-7,10-16.3,10-27.7c0-11.5-3.3-20.7-10-27.7c-6.7-7.2-15.2-10.8-25.8-10.8
	c-10.5,0-19.1,3.6-25.8,10.8c-6.7,7-10,16.3-10,27.7c0,11.5,3.3,20.7,10,27.7C548.9,156.7,557.5,160.2,568,160.2z M638.9,52.7v138.6
	h-26.9l-7.2-14.1c-5.5,5.5-11.9,9.8-19.1,12.8c-7.2,2.8-15,4.2-23.3,4.2c-19.2,0-35.5-6.8-48.8-20.5C500.5,159.8,494,142.7,494,122
	c0-20.7,6.6-37.9,19.7-51.6c13.3-13.7,29.6-20.5,48.8-20.5c8.3,0,16.1,1.5,23.3,4.4c7.2,2.8,13.6,6.9,19.1,12.5l7.2-14.1H638.9z
	 M402.4,83.4c-9,0-16.2,2.7-21.3,8c-5.2,5.4-7.8,12.8-7.8,22.2v77.6h-38V52.7h26.9l7.2,14.1c4.8-5.4,10.7-9.5,17.7-12.5
	c7-3,14.8-4.4,23.3-4.4c17.4,0,31.5,5.4,42.4,16.1c10.9,10.5,16.4,24.5,16.4,41.9v83.4h-38v-77.6c0-9.2-2.7-16.5-8-21.9
	C418,86.2,411.1,83.4,402.4,83.4z M236.9,80.9c-8.7,0-15.7,2.2-21.1,6.7c-5.4,4.2-9.1,10.7-11.1,19.4h64.9
	c-1.3-8.1-4.9-14.5-10.8-19.1C252.8,83.2,245.6,80.9,236.9,80.9z M268.2,144.7h37.7c-2.4,14.8-9.7,26.7-21.9,35.8
	c-12,9.1-26.8,13.6-44.3,13.6c-21.4,0-39-6.7-52.7-20c-13.5-13.5-20.2-30.9-20.2-52.1c0-21.4,6.6-38.8,19.7-52.1
	c13.3-13.3,30.5-20,51.6-20c20.7,0,37.3,6.6,49.9,19.7C300.6,82.7,307,100,307,121.4c0,1.3-0.1,2.9-0.3,4.7c0,1.7-0.1,3.8-0.3,6.4
	H204.2c1.5,9.6,5.3,17,11.4,22.2c6.3,5,14.3,7.5,24.1,7.5c7.4,0,13.6-1.5,18.6-4.4C263.2,154.6,266.5,150.2,268.2,144.7z
	 M104.5,74.3c0-8.3-2.5-14.7-7.5-19.1c-4.8-4.6-11.6-6.9-20.5-6.9H38.8v51.8h37.7c8.9,0,15.7-2.2,20.5-6.7
	C102,88.8,104.5,82.4,104.5,74.3z M149.4,191.3h-44.6l-27.4-57.9H38.8v57.9H0V13.9h75.4c21.4,0,38.2,5.3,50.2,15.8
	c12.2,10.5,18.3,25.2,18.3,44.1c0,11.8-2.6,22.1-7.8,30.8c-5,8.7-12.3,15.5-21.9,20.5L149.4,191.3z"/>
</svg>
