<?xml version="1.0" encoding="utf-8"?>
<!-- Generator: Adobe Illustrator 28.0.0, SVG Export Plug-In . SVG Version: 6.00 Build 0)  -->
<svg version="1.1" id="Слой_1" xmlns="http://www.w3.org/2000/svg" xmlns:xlink="http://www.w3.org/1999/xlink" x="0px" y="0px"
	 viewBox="0 0 1000 191.6561279" enable-background="new 0 0 1000 191.6561279" xml:space="preserve">
<rect x="958.7685547" y="41.3839378" fill="#00378F" width="41.2314224" height="111.32798"/>
<polygon fill="#00378F" points="891.8742065,152.7119141 849.0263672,111.9531555 849.0263672,152.7119141 807.7644043,152.7119141 
	807.7644043,41.3839378 849.0263672,41.3839378 849.0263672,80.9228287 895.0916138,41.3839378 949.1316528,41.3839378 
	885.6681519,95.6069641 947.1950684,152.7119141 "/>
<path fill="#00378F" d="M729.5558472,156.9814453c-56.7390137,0-63.5397339-23.6806488-63.7227173-41.5059357
	c-0.1067505-9.8961563-0.213501-28.1788864-0.213501-33.7292862V41.3534317h39.4778442v64.3326492
	c0,16.3614502,7.5479126,23.6501465,24.4735107,23.6501465s24.4735718-7.2886963,24.4735718-23.6501465V41.3686867h39.4779053
	v40.3927956c0,5.4436493-0.1220093,23.726387-0.213501,33.7292786c-0.1829834,17.8100357-6.9990234,41.505928-63.7227173,41.505928
	L729.5558472,156.9814453z"/>
<polygon fill="#00378F" points="522.2854004,152.7119141 522.2854004,129.6717072 587.5634766,68.6936722 524.4506836,68.6936722 
	524.4506836,41.3839378 651.835144,41.3839378 651.835144,64.4546432 585.6574097,125.2801971 651.6216431,125.2801971 
	651.6216431,152.7119141 "/>
<path fill="#00378F" d="M446.7147522,156.9814453c-56.7389832,0-63.5397644-23.6806488-63.7227478-41.5059357
	c-0.1067505-9.8504105-0.2134705-28.1331482-0.2134705-33.7292862V41.3534317h39.4778748v64.3326492
	c0,16.3614502,7.5479431,23.6501465,24.4735413,23.6501465s24.4735413-7.2886963,24.4735413-23.6501465V41.3686867h39.4779053
	v40.3927956c0,5.596138-0.1219482,23.8788681-0.213501,33.7292786c-0.1829529,17.8100357-6.9837036,41.505928-63.7227173,41.505928
	L446.7147522,156.9814453z"/>
<path fill="#00378F" d="M306.8419189,155.4108582c-59.0262604,0-69.3798523-18.0845032-71.3316345-37.8158264h49.9382324
	c4.5287476,13.1745453,17.8710327,13.1745453,22.2778015,13.1745453c5.3369141,0,17.6423035-0.9301453,17.6423035-9.4844589
	c0-7.5021667-8.3713074-8.3103256-21.0426636-9.5301971c-1.6620789-0.1524811-3.4003601-0.3202133-5.2149353-0.5184402
	c-40.6062622-4.2542801-61.2372437-11.0550308-61.2372437-36.3977432c0-11.0397758,6.0535736-36.7331963,62.1979065-36.7331963
	h0.5032043c42.93927,0.1219864,67.7177734,13.5252571,68.1599731,36.8094368h-45.8974609
	c-3.0953979-11.0397835-15.3397827-12.7018433-22.4302673-12.7018433c-2.7447205,0-11.985199,0.3354645-16.0107422,4.6354904
	c-1.3876038,1.4790878-2.0127869,3.278389-1.8755493,5.3369141c0.3659668,6.0688248,11.8784485,7.3649368,26.4558411,9.0270004
	c3.0039368,0.3354645,6.1298523,0.7014236,9.3167419,1.1131287c36.5044556,4.6659851,54.2382507,16.5901718,54.2382507,36.4434738
	c0,8.554306-4.6812439,36.4739761-64.8205872,36.641716C307.7110901,155.4108582,306.8419189,155.4108582,306.8419189,155.4108582z"
	/>
<path id="refine_final" fill="#DE013A" d="M74.9302368,42.6343002l40.8197556,27.4317169
	c8.462822,5.6876297,17.1086197,11.2380142,32.0367203,11.2380142c23.2232056,0,43.8999176-16.8798904,43.8999176-16.8798904
	L95.8204346,0c0,0-10.4603424,11.5124807-43.2899742,31.9604759C18.0692577,53.4453583,0,59.6819191,0,59.6819191
	l123.70961,83.1948242l-8.1273575,5.3369141l-39.6913757-26.6693039
	c-8.4170685-5.6571274-17.1086159-11.2227631-32.0214691-11.2227631C20.6462231,110.3063354,0,127.2472153,0,127.2472153
	l95.8661804,64.4089127c0,0,10.4603424-11.5124817,43.2899628-31.9604797
	c34.4612122-21.4848938,52.5457153-27.7214508,52.5457153-27.7214508L66.8181305,47.9712105l8.1273575-5.3369102H74.9302368z"/>
</svg>
